<svg width="36" height="50" viewBox="0 0 36 50" fill="none" xmlns="http://www.w3.org/2000/svg">
<path d="M34.696 32.0052V16.8005C35.1964 16.5096 35.7136 16.0568 35.7136 15.3969C35.7136 14.7002 35.1465 14.2498 34.696 13.9922V3.52092V3.52082V3.52073C34.696 0.270187 21.2462 0 17.9999 0C16.028 0 14.0997 0.0617877 12.2688 0.183704C11.8654 0.210547 11.56 0.559408 11.587 0.962736C11.6137 1.36626 11.9657 1.67159 12.366 1.64455C14.1648 1.52488 16.0603 1.46416 17.9999 1.46416C21.949 1.46416 25.7252 1.71893 28.6328 2.1818C31.9683 2.71261 32.9226 3.30628 33.1697 3.52082C32.9226 3.73537 31.9682 4.32894 28.6328 4.85985C25.7252 5.32262 21.949 5.57749 17.9999 5.57749C14.0509 5.57749 10.2747 5.32272 7.36717 4.85985C4.01199 4.32582 3.06624 3.72835 2.82592 3.51712C3.20367 3.17401 4.86931 2.41626 9.46375 1.90048C9.86552 1.85539 10.1546 1.49306 10.1095 1.09129C10.0645 0.689523 9.7029 0.400497 9.30035 0.445496C7.04613 0.698503 5.15579 1.05088 3.83346 1.46455C2.74754 1.80424 1.30397 2.38698 1.30397 3.52073V3.52092V3.52102V13.9922C0.853496 14.2498 0.286377 14.7002 0.286377 15.3969C0.286377 16.0568 0.803421 16.5097 1.30397 16.8005V32.0051C0.853398 32.2626 0.286377 32.7129 0.286377 33.4099C0.286377 34.0697 0.803421 34.5225 1.30397 34.8134V46.4792C1.30397 49.7298 14.7233 49.9999 17.9999 49.9999C21.2766 49.9999 34.696 49.7297 34.696 46.4792V34.8135C35.1964 34.5226 35.7136 34.0698 35.7136 33.41C35.7135 32.713 35.1464 32.2628 34.696 32.0052ZM2.76813 17.3997C6.69004 18.6161 13.7999 18.9178 17.9999 18.9178C22.2514 18.9178 29.3423 18.6061 33.2318 17.3997V33.8689C29.6925 35.16 21.9669 35.4666 17.9999 35.4666C14.0387 35.4666 6.30877 35.1605 2.76813 33.8689V17.3997ZM17.9999 7.04155C21.8816 7.04155 29.9596 6.69474 33.2318 5.1805V15.8559C29.6926 17.147 21.9657 17.4535 17.9999 17.4535C14.0303 17.4535 6.30204 17.1451 2.76813 15.8559V5.1805C6.06894 6.70801 14.1351 7.04155 17.9999 7.04155ZM28.6327 47.8183C25.7251 48.281 21.9489 48.5359 17.9998 48.5359C14.0508 48.5359 10.2746 48.2811 7.36697 47.8183C3.62252 47.2224 2.87892 46.5473 2.76804 46.4183V35.4126C6.66984 36.623 13.746 36.9307 17.9998 36.9307C22.2513 36.9307 29.3423 36.6191 33.2317 35.4126V46.4183C33.1208 46.5473 32.3773 47.2223 28.6327 47.8183Z" fill="white"/>
</svg>
