<svg width="50" height="50" viewBox="0 0 50 50" fill="none" xmlns="http://www.w3.org/2000/svg">
<circle cx="25" cy="25" r="25" fill="#3166D0"/>
<path d="M39.0564 12.833C39.27 12.6507 39.2955 12.3297 39.1132 12.116C38.9309 11.9024 38.61 11.8768 38.3961 12.0592L37.2981 12.9959C37.0845 13.1782 37.059 13.4993 37.2413 13.7129C37.3419 13.8309 37.4847 13.8914 37.6285 13.8914C37.7452 13.8914 37.8626 13.8515 37.9584 13.7698L39.0564 12.833Z" fill="white"/>
<path d="M36.8386 23.3491V23.975C36.8386 24.2559 37.0663 24.4837 37.3472 24.4837C37.6282 24.4837 37.8559 24.2559 37.8559 23.975V23.3491C37.8559 23.0682 37.6282 22.8405 37.3472 22.8405C37.0663 22.8405 36.8386 23.0682 36.8386 23.3491Z" fill="white"/>
<path d="M11.1233 33.8552C10.5936 34.385 10.5936 35.2468 11.1233 35.7767C11.6543 36.3076 12.5138 36.3078 13.0449 35.7766C13.5746 35.2468 13.5746 34.385 13.0449 33.8552C12.5139 33.3242 11.6543 33.3242 11.1233 33.8552ZM12.3255 35.0573C12.1925 35.1903 11.9767 35.1913 11.8427 35.0574C11.7095 34.9242 11.7095 34.7076 11.8427 34.5745C11.9756 34.4415 12.1915 34.4405 12.3255 34.5745C12.4586 34.7076 12.4586 34.9242 12.3255 35.0573Z" fill="white"/>
<path d="M17.0313 31.79C17.5624 31.2589 17.5625 30.3996 17.0314 29.8685C16.5004 29.3375 15.641 29.3375 15.1099 29.8685C14.5789 30.3996 14.5789 31.2588 15.1099 31.79C15.6409 32.3209 16.5003 32.321 17.0313 31.79ZM15.8292 30.5878C15.963 30.4541 16.1788 30.4546 16.312 30.5878V30.5878C16.4455 30.7213 16.4456 30.9371 16.312 31.0707C16.1786 31.2041 15.9628 31.2041 15.8292 31.0706C15.696 30.9374 15.6955 30.7216 15.8292 30.5878Z" fill="white"/>
<path d="M13.4994 32.1455C13.3007 32.3441 13.3007 32.6662 13.4993 32.8647L14.0351 33.4006C14.1344 33.4999 14.2646 33.5495 14.3948 33.5495C14.5249 33.5495 14.6551 33.4999 14.7544 33.4006C14.9531 33.202 14.9531 32.8799 14.7545 32.6814L14.2187 32.1455C14.0199 31.9469 13.6979 31.9468 13.4994 32.1455Z" fill="white"/>
<path d="M24.2567 15.5456H26.6249C26.9058 15.5456 27.1335 15.3179 27.1335 15.037C27.1335 14.7561 26.9058 14.5284 26.6249 14.5284H24.2567C23.9757 14.5284 23.748 14.7561 23.748 15.037C23.748 15.3179 23.9757 15.5456 24.2567 15.5456Z" fill="white"/>
<path d="M41.8514 41.3439H33.3966V39.308C33.3966 38.7808 32.9677 38.3519 32.4405 38.3519H31.472V36.1528C31.472 35.7157 31.1163 35.36 30.6792 35.36H30.0407L27.6791 17.1126H28.5695C29.2106 17.1126 29.7321 16.5911 29.7321 15.95V13.9773L35.1655 14.5607V29.6425C35.1655 29.8243 35.2626 29.9923 35.42 30.0831C35.5751 30.1726 35.7692 30.1752 35.9289 30.0827C37.4332 29.2122 38.6423 27.8394 39.5229 26.0024C39.6443 25.7491 39.5375 25.4453 39.2841 25.3239C39.031 25.2024 38.7271 25.3092 38.6056 25.5626C37.9731 26.8821 37.1604 27.9297 36.1827 28.6883C36.1827 28.0582 36.1827 13.1337 36.1827 12.3527L39.4594 9.55722C40.4615 15.3624 40.4142 20.1238 39.3185 23.7135C39.2364 23.9822 39.3877 24.2665 39.6564 24.3485C39.925 24.4304 40.2093 24.2793 40.2913 24.0106C41.4527 20.2062 41.4927 15.186 40.4103 9.08964C40.3572 8.79085 40.1466 8.54149 39.8608 8.43902C39.575 8.33656 39.2542 8.39515 39.0233 8.59208L35.5306 11.5719L20.718 8.68343C20.4419 8.62965 20.1752 8.80963 20.1214 9.0853C20.0677 9.36097 20.2476 9.62809 20.5233 9.68186L35.1655 12.5371V13.5377C34.3489 13.45 11.9806 11.0481 11.226 10.9671L11.3469 10.7472C12.1946 9.20499 13.9248 8.39522 15.6522 8.73198L18.4897 9.28535C18.7661 9.33933 19.0325 9.15915 19.0863 8.88348C19.1401 8.60782 18.9602 8.34069 18.6844 8.28692L15.8469 7.73355C13.6839 7.31167 11.5171 8.32591 10.4555 10.2571L9.96679 11.1463C9.8848 11.2953 9.88284 11.4755 9.9615 11.6264C10.0402 11.7773 10.189 11.8788 10.3582 11.897L11.9866 12.0718V13.0228C11.9866 13.6449 12.4928 14.1511 13.115 14.1511H13.6531V29.2217L11.5551 31.3196C11.3565 31.5183 11.3565 31.8403 11.5551 32.039C11.7538 32.2374 12.0758 32.2376 12.2745 32.039L14.9559 29.3575C15.6707 28.6427 16.8278 28.6427 17.5428 29.3575C18.256 30.0708 18.256 31.2312 17.5428 31.9444L13.2986 36.1885C12.5855 36.9017 11.4249 36.9018 10.7117 36.1885C9.99846 35.4753 9.99846 34.3148 10.7117 33.6016L10.8365 33.4768C11.0351 33.2781 11.0351 32.9562 10.8365 32.7575C10.6378 32.559 10.3158 32.559 10.1172 32.7575L9.99243 32.8823C8.88264 33.9922 8.88264 35.7979 9.99243 36.9078C10.0911 37.0065 10.1955 37.096 10.3042 37.1771L8.94889 41.3437H8.14753C7.86657 41.3437 7.63892 41.5714 7.63892 41.8524C7.63892 42.1333 7.86657 42.361 8.14753 42.361H41.8514C42.1324 42.361 42.3601 42.1333 42.3601 41.8524C42.3601 41.5714 42.1323 41.3439 41.8514 41.3439ZM30.4548 38.3519H20.4274V36.3773H30.4548V38.3519ZM28.6281 32.3704L23.4154 30.3481L28.1051 28.3294L28.6281 32.3704ZM27.9065 26.795L23.8705 24.8469L27.4022 22.8987L27.9065 26.795ZM26.677 17.2956L27.1765 21.1552L24.3499 19.3222L26.677 17.2956ZM25.3032 17.1431L24.0879 18.2015L24.2248 17.1431H25.3032ZM23.8295 20.1971L26.7548 22.0941L23.3402 23.9776L23.8295 20.1971ZM23.1279 25.618L27.2306 27.5983L22.6144 29.5854L23.1279 25.618ZM22.4243 31.0547L27.948 33.1976L23.9777 35.3539C23.9741 35.3558 23.971 35.3581 23.9676 35.3601H21.8671L22.4243 31.0547ZM26.0977 35.36L28.8234 33.8798L29.015 35.36H26.0977ZM28.7149 15.9501C28.7149 16.0303 28.6496 16.0954 28.5695 16.0954H22.3125C22.2324 16.0954 22.1672 16.0303 22.1672 15.9501V13.165L28.7148 13.8681V15.9501H28.7149ZM13.0037 13.0228V12.181L15.3195 12.4297V13.0228C15.3195 13.0841 15.2697 13.1339 15.2084 13.1339H13.1149C13.0537 13.1338 13.0037 13.084 13.0037 13.0228ZM18.262 32.6637C19.3717 31.5539 19.3717 29.7482 18.262 28.6383C17.2723 27.6487 15.7594 27.5526 14.6702 28.2817V14.1511H15.2085C15.8306 14.1511 16.3368 13.6449 16.3368 13.0228V12.5389L21.1501 13.0558V15.9501C21.1501 16.5912 21.6716 17.1127 22.3127 17.1127H23.2032L20.8415 35.3601H20.203C19.7659 35.3601 19.4103 35.7157 19.4103 36.1529V38.352H18.4417C17.9145 38.352 17.4856 38.7808 17.4856 39.3081V41.3439H15.6859L14.1877 36.7381L18.262 32.6637ZM10.0185 41.3439L11.226 37.6318C11.4803 37.7037 11.7427 37.7403 12.0052 37.7402C12.4635 37.7401 12.9218 37.6303 13.337 37.4108L14.6163 41.3439H10.0185ZM18.5027 41.3439V39.3692H32.3794V41.3439H18.5027Z" fill="white"/>
</svg>
