<svg width="50" height="36" viewBox="0 0 50 36" fill="none" xmlns="http://www.w3.org/2000/svg">
<path d="M49.2676 21.9346C49.6722 21.9346 50 21.6067 50 21.2021V19.3094C50 18.559 49.3895 17.9485 48.6392 17.9485H46.4572C45.7068 17.9485 45.0964 18.559 45.0964 19.3094V19.5932H40.2603C40.134 19.3727 39.897 19.2238 39.6247 19.2238C39.3524 19.2238 39.1153 19.3727 38.9892 19.5932H35.2434C34.1175 17.1423 32.1375 15.1623 29.6866 14.0364V9.12549C29.6866 8.19863 28.9325 7.44453 28.0057 7.44453H27.2547V4.65606H30.5816C31.4484 4.65606 32.1537 3.95078 32.1537 3.08399V2.02627C32.1537 1.15947 31.4484 0.454201 30.5816 0.454201H23.974C23.5695 0.454201 23.2416 0.782033 23.2416 1.18662C23.2416 1.59121 23.5695 1.91904 23.974 1.91904H30.5816C30.6407 1.91904 30.6889 1.96709 30.6889 2.02627V3.08408C30.6889 3.14317 30.6408 3.19131 30.5816 3.19131C26.9017 3.19131 22.7274 3.19131 19.4182 3.19131C19.3591 3.19131 19.3109 3.14326 19.3109 3.08408V2.02627C19.3109 1.96719 19.359 1.91904 19.4182 1.91904H21.0457C21.4502 1.91904 21.7781 1.59121 21.7781 1.18662C21.7781 0.782033 21.4502 0.454201 21.0457 0.454201H19.4182C18.5514 0.454201 17.8461 1.15947 17.8461 2.02627V3.08408C17.8461 3.95088 18.5513 4.65615 19.4182 4.65615H22.7452V7.44463H21.9942C21.0674 7.44463 20.3133 8.19873 20.3133 9.12559V14.0365C17.8624 15.1623 15.8823 17.1424 14.7565 19.5933H11.0107C10.8845 19.3728 10.6475 19.2239 10.3752 19.2239C10.1029 19.2239 9.86592 19.3728 9.73965 19.5933H4.90352V19.3095C4.90352 18.5591 4.29307 17.9486 3.54268 17.9486H1.36074C0.610449 17.9485 0 18.559 0 19.3094V29.2505C0 30.0009 0.610449 30.6113 1.36074 30.6113H3.54268C4.29307 30.6113 4.90352 30.0009 4.90352 29.2505V28.9666H5.80889C6.21338 28.9666 6.54131 28.6388 6.54131 28.2342C6.54131 27.8296 6.21338 27.5018 5.80889 27.5018H4.90352V21.0581H9.64277V27.5018H8.7374C8.33291 27.5018 8.00498 27.8296 8.00498 28.2342C8.00498 28.6388 8.33291 28.9666 8.7374 28.9666H9.73965C9.86592 29.1871 10.1029 29.3359 10.3752 29.3359C10.6475 29.3359 10.8845 29.1871 11.0107 28.9666H14.7564C16.5382 32.8454 20.4595 35.5457 25 35.5457C29.5404 35.5457 33.4617 32.8454 35.2435 28.9666H38.9892C39.1154 29.1871 39.3524 29.3359 39.6247 29.3359C39.897 29.3359 40.1341 29.1871 40.2603 28.9666H45.0964V29.2505C45.0964 30.0009 45.7068 30.6113 46.4572 30.6113H48.6392C49.3895 30.6113 50 30.0009 50 29.2505V24.1305C50 23.7259 49.6722 23.398 49.2676 23.398C48.863 23.398 48.5352 23.7259 48.5352 24.1305V29.1464H46.5613C46.5613 27.9282 46.5613 20.6395 46.5613 19.4134H48.5352V21.202C48.5352 21.6066 48.863 21.9346 49.2676 21.9346ZM3.43867 29.1464H1.46484V19.4134H3.43867V29.1464ZM24.2102 4.65615H25.7899V7.44463H24.2102V4.65615ZM21.7781 9.12559C21.7781 9.00645 21.8751 8.90947 21.9942 8.90947H28.0058C28.1249 8.90947 28.2219 9.00645 28.2219 9.12559V13.4844C27.2006 13.179 26.1192 13.0142 25 13.0142C23.8808 13.0142 22.7994 13.179 21.7781 13.4844V9.12559ZM11.1076 27.5018V21.0581H14.2044C13.899 22.0794 13.7342 23.1607 13.7342 24.28C13.7342 25.3992 13.899 26.4805 14.2044 27.5018H11.1076ZM25 34.0809C19.5957 34.0809 15.199 29.6843 15.199 24.28C15.199 18.8757 19.5957 14.479 25 14.479C30.4042 14.479 34.8009 18.8756 34.8009 24.2799C34.8009 29.6842 30.4042 34.0809 25 34.0809ZM35.7955 21.058H38.8924V27.5017H35.7956C36.101 26.4804 36.2658 25.3991 36.2658 24.2799C36.2657 23.1606 36.1009 22.0793 35.7955 21.058ZM40.3571 27.5018V21.0581H45.0964V27.5018H40.3571Z" fill="white"/>
</svg>
