<svg width="50" height="50" viewBox="0 0 50 50" fill="none" xmlns="http://www.w3.org/2000/svg">
<path d="M49.2673 48.5352H37.0924V45.6036C37.0924 44.8444 36.4747 44.2268 35.7154 44.2268H34.3209V41.0601C34.3209 40.4306 33.8087 39.9185 33.1792 39.9185H32.2598L28.859 13.6422H30.1413C31.0644 13.6422 31.8155 12.8912 31.8155 11.9681V9.12739L39.6395 9.9675V31.6853C39.6395 31.9471 39.7793 32.189 40.006 32.3197C40.2294 32.4485 40.5088 32.4523 40.7388 32.3191C42.905 31.0656 44.6461 29.0888 45.9141 26.4435C46.089 26.0787 45.9351 25.6412 45.5703 25.4664C45.2059 25.2914 44.7682 25.4453 44.5933 25.8103C43.6825 27.7102 42.5121 29.2189 41.1042 30.3112C41.1042 29.4039 41.1042 7.91258 41.1042 6.78801L45.8227 2.76245C47.2658 11.122 47.1977 17.9784 45.6198 23.1476C45.5017 23.5345 45.7195 23.9438 46.1064 24.0619C46.4931 24.1798 46.9026 23.9622 47.0207 23.5753C48.6931 18.0969 48.7507 10.868 47.1919 2.08913C47.1155 1.65887 46.8123 1.2998 46.4007 1.15225C45.9892 1.00469 45.5272 1.08906 45.1947 1.37265L40.1652 5.66353L18.8351 1.50419C18.4376 1.42675 18.0535 1.68592 17.9761 2.08288C17.8986 2.47984 18.1577 2.8645 18.5547 2.94194L39.6394 7.05353V8.4944C38.4636 8.36804 6.25317 4.90926 5.16668 4.79266L5.3407 4.47597C6.56147 2.25524 9.05289 1.08916 11.5403 1.57411L15.6264 2.37096C16.0244 2.44869 16.408 2.18923 16.4855 1.79227C16.5629 1.3953 16.3038 1.01065 15.9068 0.93321L11.8207 0.13636C8.70593 -0.471141 5.58581 0.98936 4.05715 3.77033L3.35336 5.05066C3.2353 5.2653 3.23247 5.52477 3.34575 5.74204C3.45902 5.95932 3.67337 6.10551 3.91702 6.13168L6.26187 6.38343V7.75282C6.26187 8.64869 6.99075 9.37758 7.88672 9.37758H8.66169V31.0793L5.6406 34.1003C5.35457 34.3865 5.35457 34.8501 5.6406 35.1361C5.92662 35.422 6.39028 35.4222 6.6764 35.1361L10.5377 31.2748C11.567 30.2456 13.2332 30.2455 14.2628 31.2748C15.2898 32.302 15.2898 33.973 14.2628 34.9999L8.15116 41.1114C7.12434 42.1385 5.4531 42.1387 4.42608 41.1114C3.39897 40.0844 3.39897 38.4134 4.42608 37.3864L4.60576 37.2067C4.89179 36.9206 4.89179 36.4569 4.60576 36.1709C4.31964 35.885 3.85598 35.885 3.56996 36.1709L3.39028 36.3506C1.79218 37.9488 1.79218 40.5491 3.39028 42.1473C3.53236 42.2893 3.68275 42.4182 3.83928 42.535L1.88759 48.535H0.73362C0.329042 48.535 0.0012207 48.8629 0.0012207 49.2674C0.0012207 49.672 0.329042 49.9998 0.73362 49.9998H49.2673C49.6718 49.9998 49.9997 49.672 49.9997 49.2674C49.9997 48.8629 49.6717 48.5352 49.2673 48.5352ZM32.8561 44.2268H18.4166V41.3833H32.8561V44.2268ZM30.2256 35.6134L22.7194 32.7013L29.4725 29.7943L30.2256 35.6134ZM29.1865 27.5849L23.3747 24.7795L28.4604 21.9742L29.1865 27.5849ZM27.4161 13.9058L28.1354 19.4636L24.065 16.824L27.4161 13.9058ZM25.4378 13.6861L23.6877 15.2102L23.8849 13.6861H25.4378ZM23.3157 18.0839L27.5281 20.8156L22.6111 23.5278L23.3157 18.0839ZM22.3054 25.89L28.2132 28.7416L21.566 31.603L22.3054 25.89ZM21.2922 33.7188L29.2463 36.8046L23.529 39.9097C23.5239 39.9125 23.5194 39.9158 23.5145 39.9186H20.4897L21.2922 33.7188ZM26.5819 39.9185L30.5069 37.7869L30.7828 39.9185H26.5819ZM30.3506 11.9682C30.3506 12.0836 30.2566 12.1775 30.1412 12.1775H21.1312C21.0158 12.1775 20.922 12.0836 20.922 11.9682V7.9576L30.3505 8.97007V11.9682H30.3506ZM7.72656 7.75282V6.54075L11.0612 6.89884V7.75292C11.0612 7.8411 10.9895 7.91288 10.9013 7.91288H7.88662C7.79844 7.91278 7.72656 7.841 7.72656 7.75282ZM15.2985 36.0358C16.8965 34.4377 16.8965 31.8374 15.2985 30.2392C13.8733 28.8142 11.6947 28.6758 10.1263 29.7258V9.37758H10.9014C11.7972 9.37758 12.5261 8.64869 12.5261 7.75282V7.05607L19.4574 7.80038V11.9682C19.4574 12.8913 20.2083 13.6423 21.1314 13.6423H22.4138L19.0129 39.9186H18.0935C17.4641 39.9186 16.952 40.4307 16.952 41.0602V44.2269H15.5573C14.7981 44.2269 14.1805 44.8444 14.1805 45.6037V48.5353H11.5889L9.43149 41.9029L15.2985 36.0358ZM3.42777 48.5352L5.16659 43.1898C5.53288 43.2934 5.91061 43.346 6.28862 43.346C6.94866 43.3459 7.6086 43.1877 8.20643 42.8717L10.0487 48.5352H3.42777ZM15.6451 48.5352V45.6917H35.6276V48.5352H15.6451Z" fill="white"/>
</svg>
