<svg width="50" height="50" viewBox="0 0 50 50" fill="none" xmlns="http://www.w3.org/2000/svg">
<circle cx="25" cy="25" r="25" fill="#3166D0"/>
<path d="M22.3993 26.4448C20.966 27.8781 20.9664 30.2134 22.3993 31.6465C23.8424 33.0895 26.1753 33.0718 27.6008 31.6465V31.6464C29.0349 30.2123 29.0349 27.8789 27.6008 26.4448C26.1669 25.0108 23.8333 25.0109 22.3993 26.4448ZM25.0001 26.3861C25.5198 26.3861 26.0394 26.5375 26.4869 26.8394L24.8047 28.5217L22.4328 28.3514C22.5496 27.9163 22.7778 27.505 23.1186 27.1642C23.6374 26.6454 24.3186 26.3861 25.0001 26.3861ZM22.3605 29.3661L24.5243 29.5215L24.6797 31.6853C24.1087 31.6166 23.5559 31.3644 23.1186 30.9273C22.6813 30.4899 22.4291 29.937 22.3605 29.3661ZM26.8815 30.9271C26.5407 31.268 26.1295 31.4961 25.6944 31.613L25.5241 29.2411L27.2063 27.5588C27.9038 28.593 27.7959 30.0127 26.8815 30.9271Z" fill="white"/>
<path d="M41.8525 27.4169C42.1335 27.4169 42.3611 27.1893 42.3611 26.9083V25.5939C42.3611 25.0728 41.9372 24.6488 41.4161 24.6488H39.9009C39.3798 24.6488 38.9558 25.0728 38.9558 25.5939V25.7909H35.5974C35.5097 25.6378 35.3451 25.5345 35.1561 25.5345C34.967 25.5345 34.8023 25.6378 34.7147 25.7909H32.1135C31.3316 24.0889 29.9566 22.714 28.2546 21.9321V18.5217C28.2546 17.8781 27.7309 17.3544 27.0873 17.3544H26.5658V15.418H28.8762C29.4781 15.418 29.9679 14.9282 29.9679 14.3262V13.5917C29.9679 12.9898 29.4781 12.5 28.8762 12.5H24.2875C24.0066 12.5 23.7789 12.7277 23.7789 13.0086C23.7789 13.2896 24.0066 13.5173 24.2875 13.5173H28.8762C28.9172 13.5173 28.9506 13.5506 28.9506 13.5917V14.3263C28.9506 14.3673 28.9173 14.4008 28.8762 14.4008C26.3206 14.4008 23.4219 14.4008 21.1238 14.4008C21.0827 14.4008 21.0493 14.3674 21.0493 14.3263V13.5917C21.0493 13.5507 21.0827 13.5173 21.1238 13.5173H22.254C22.5349 13.5173 22.7626 13.2896 22.7626 13.0086C22.7626 12.7277 22.5349 12.5 22.254 12.5H21.1238C20.5218 12.5 20.032 12.9898 20.032 13.5917V14.3263C20.032 14.9282 20.5217 15.418 21.1238 15.418H23.4342V17.3545H22.9127C22.269 17.3545 21.7454 17.8781 21.7454 18.5218V21.9322C20.0434 22.714 18.6683 24.089 17.8865 25.791H15.2853C15.1976 25.6379 15.033 25.5345 14.8439 25.5345C14.6548 25.5345 14.4902 25.6379 14.4026 25.791H11.0441V25.5939C11.0441 25.0728 10.6202 24.6489 10.0991 24.6489H8.58388C8.06284 24.6488 7.63892 25.0728 7.63892 25.5939V32.4974C7.63892 33.0185 8.06284 33.4424 8.58388 33.4424H10.0991C10.6202 33.4424 11.0441 33.0185 11.0441 32.4974V32.3003H11.6729C11.9538 32.3003 12.1815 32.0726 12.1815 31.7916C12.1815 31.5107 11.9538 31.283 11.6729 31.283H11.0441V26.8083H14.3353V31.283H13.7066C13.4257 31.283 13.1979 31.5107 13.1979 31.7916C13.1979 32.0726 13.4257 32.3003 13.7066 32.3003H14.4026C14.4902 32.4534 14.6548 32.5568 14.8439 32.5568C15.033 32.5568 15.1976 32.4534 15.2853 32.3003H17.8864C19.1238 34.9939 21.8469 36.8691 25 36.8691C28.1531 36.8691 30.8762 34.9939 32.1135 32.3003H34.7147C34.8024 32.4534 34.967 32.5568 35.1561 32.5568C35.3451 32.5568 35.5098 32.4534 35.5974 32.3003H38.9558V32.4974C38.9558 33.0185 39.3798 33.4424 39.9009 33.4424H41.4161C41.9372 33.4424 42.3611 33.0185 42.3611 32.4974V28.9419C42.3611 28.6609 42.1335 28.4332 41.8525 28.4332C41.5715 28.4332 41.3439 28.6609 41.3439 28.9419V32.4251H39.9732C39.9732 31.5792 39.9732 26.5176 39.9732 25.6661H41.3439V26.9082C41.3439 27.1892 41.5715 27.4169 41.8525 27.4169ZM10.0269 32.4251H8.65617V25.6661H10.0269V32.4251ZM24.4515 15.418H25.5486V17.3545H24.4515V15.418ZM22.7626 18.5218C22.7626 18.4391 22.83 18.3717 22.9127 18.3717H27.0874C27.1701 18.3717 27.2374 18.4391 27.2374 18.5218V21.5487C26.5282 21.3367 25.7773 21.2222 25 21.2222C24.2228 21.2222 23.4718 21.3367 22.7626 21.5487V18.5218ZM15.3525 31.283V26.8083H17.5031C17.291 27.5175 17.1765 28.2684 17.1765 29.0457C17.1765 29.8229 17.291 30.5738 17.5031 31.283H15.3525ZM25 35.8518C21.247 35.8518 18.1938 32.7987 18.1938 29.0457C18.1938 25.2927 21.247 22.2394 25 22.2394C28.7529 22.2394 31.8062 25.2926 31.8062 29.0456C31.8062 32.7986 28.7529 35.8518 25 35.8518ZM32.4969 26.8082H34.6475V31.283H32.497C32.709 30.5737 32.8235 29.8229 32.8235 29.0456C32.8234 28.2684 32.709 27.5174 32.4969 26.8082ZM35.6647 31.283V26.8083H38.9558V31.283H35.6647Z" fill="white"/>
<path d="M25.0001 24.2572C25.281 24.2572 25.5087 24.0296 25.5087 23.7486V23.563C25.5087 23.2821 25.281 23.0544 25.0001 23.0544C24.7192 23.0544 24.4915 23.2821 24.4915 23.563V23.7486C24.4915 24.0296 24.7192 24.2572 25.0001 24.2572Z" fill="white"/>
<path d="M30.4825 28.537H30.297C30.016 28.537 29.7883 28.7646 29.7883 29.0456C29.7883 29.3266 30.016 29.5542 30.297 29.5542H30.4825C30.7635 29.5542 30.9911 29.3266 30.9911 29.0456C30.9911 28.7646 30.7635 28.537 30.4825 28.537Z" fill="white"/>
<path d="M25.0001 33.834C24.7192 33.834 24.4915 34.0617 24.4915 34.3426V34.5283C24.4915 34.8092 24.7192 35.0369 25.0001 35.0369C25.281 35.0369 25.5087 34.8092 25.5087 34.5283V34.3426C25.5087 34.0617 25.281 33.834 25.0001 33.834Z" fill="white"/>
<path d="M19.703 28.537H19.5174C19.2365 28.537 19.0088 28.7646 19.0088 29.0456C19.0088 29.3266 19.2365 29.5542 19.5174 29.5542H19.703C19.9839 29.5542 20.2116 29.3266 20.2116 29.0456C20.2116 28.7646 19.9839 28.537 19.703 28.537Z" fill="white"/>
</svg>
