<svg width="50" height="50" viewBox="0 0 50 50" fill="none" xmlns="http://www.w3.org/2000/svg">
<circle cx="25" cy="25" r="25" fill="#3166D0"/>
<path d="M36.5945 29.8647V19.3059C36.9421 19.1039 37.3012 18.7894 37.3012 18.3312C37.3012 17.8474 36.9074 17.5346 36.5945 17.3557V10.084V10.0839V10.0838C36.5945 7.82652 27.2544 7.63889 25 7.63889C23.6306 7.63889 22.2915 7.68179 21.0201 7.76646C20.7399 7.7851 20.5279 8.02736 20.5466 8.30745C20.5652 8.58768 20.8096 8.79971 21.0876 8.78093C22.3368 8.69783 23.6531 8.65567 25 8.65567C27.7424 8.65567 30.3648 8.83259 32.384 9.15402C34.7003 9.52264 35.363 9.93491 35.5346 10.0839C35.363 10.2329 34.7003 10.6451 32.384 11.0138C30.3648 11.3352 27.7424 11.5121 25 11.5121C22.2577 11.5121 19.6353 11.3352 17.6162 11.0138C15.2862 10.6429 14.6294 10.228 14.4625 10.0813C14.7249 9.84306 15.8816 9.31684 19.0722 8.95867C19.3512 8.92735 19.5519 8.67573 19.5206 8.39673C19.4894 8.11772 19.2382 7.91701 18.9587 7.94826C17.3932 8.12396 16.0805 8.36866 15.1622 8.65594C14.4081 8.89183 13.4056 9.29651 13.4056 10.0838V10.084V10.084V17.3557C13.0928 17.5346 12.699 17.8474 12.699 18.3312C12.699 18.7894 13.058 19.104 13.4056 19.3059V29.8647C13.0927 30.0435 12.699 30.3562 12.699 30.8402C12.699 31.2984 13.058 31.6129 13.4056 31.8149V39.9161C13.4056 42.1735 22.7246 42.361 25 42.361C27.2755 42.361 36.5945 42.1734 36.5945 39.9161V31.8149C36.9421 31.6129 37.3012 31.2985 37.3012 30.8402C37.3011 30.3563 36.9074 30.0436 36.5945 29.8647ZM14.4224 19.722C17.146 20.5668 22.0834 20.7762 25 20.7762C27.9524 20.7762 32.8767 20.5598 35.5777 19.722V31.159C33.1199 32.0556 27.7549 32.2685 25 32.2685C22.2492 32.2685 16.8812 32.0559 14.4224 31.159V19.722ZM25 12.5289C27.6957 12.5289 33.3054 12.288 35.5777 11.2365V18.6499C33.12 19.5465 27.754 19.7594 25 19.7594C22.2434 19.7594 16.8765 19.5452 14.4224 18.6499V11.2365C16.7146 12.2972 22.3162 12.5289 25 12.5289ZM32.3839 40.846C30.3648 41.1673 27.7424 41.3444 25 41.3444C22.2576 41.3444 19.6352 41.1674 17.6161 40.846C15.0157 40.4322 14.4994 39.9634 14.4223 39.8738V32.231C17.1319 33.0715 22.046 33.2852 25 33.2852C27.9524 33.2852 32.8767 33.0688 35.5777 32.231V39.8738C35.5007 39.9634 34.9844 40.4321 32.3839 40.846Z" fill="white"/>
<path d="M18.1782 10.0838C18.1782 10.3647 18.4058 10.5922 18.6866 10.5922H19.6227C19.9036 10.5922 20.1311 10.3647 20.1311 10.0838C20.1311 9.80299 19.9036 9.57544 19.6227 9.57544H18.6866C18.4058 9.57544 18.1782 9.80306 18.1782 10.0838Z" fill="white"/>
<path d="M25.0001 31.2895C27.2427 31.2895 29.1754 29.768 29.7 27.5895C29.7658 27.3166 29.5977 27.042 29.3248 26.9762C29.0519 26.9105 28.7772 27.0786 28.7114 27.3515C28.2973 29.0714 26.7712 30.2727 25.0001 30.2727C22.8945 30.2727 21.1816 28.5597 21.1816 26.4542C21.1816 24.3487 22.8946 22.6357 25.0001 22.6357C26.7712 22.6357 28.2973 23.8369 28.7114 25.5569C28.7772 25.8299 29.0517 25.9975 29.3248 25.9322C29.5977 25.8664 29.7658 25.5918 29.7 25.3189C29.1754 23.1404 27.2427 21.6189 25.0001 21.6189C22.3339 21.6189 20.1648 23.788 20.1648 26.4542C20.1648 29.1204 22.3339 31.2895 25.0001 31.2895Z" fill="white"/>
</svg>
