<svg width="20" height="20" viewBox="0 0 20 20" fill="none" xmlns="http://www.w3.org/2000/svg">
<g clip-path="url(#clip0)">
<path d="M19.2816 3.69223H0.410259C0.183803 3.69223 0 3.87603 0 4.10249C0 4.32895 0.183803 4.51275 0.410259 4.51275H19.2816C19.5081 4.51275 19.6919 4.32895 19.6919 4.10249C19.6919 3.87603 19.508 3.69223 19.2816 3.69223Z" fill="#333333"/>
<path d="M19.2816 9.43567H0.410259C0.183803 9.43567 0 9.61947 0 9.84593C0 10.0724 0.183803 10.2562 0.410259 10.2562H19.2816C19.5081 10.2562 19.6919 10.0724 19.6919 9.84593C19.6919 9.61947 19.508 9.43567 19.2816 9.43567Z" fill="#333333"/>
<path d="M19.2816 15.1791H0.410259C0.183803 15.1791 0 15.3629 0 15.5894C0 15.8158 0.183803 15.9996 0.410259 15.9996H19.2816C19.5081 15.9996 19.6919 15.8158 19.6919 15.5894C19.6918 15.3629 19.508 15.1791 19.2816 15.1791Z" fill="#333333"/>
</g>
<defs>
<clipPath id="clip0">
<rect width="19.6918" height="19.6918" fill="white"/>
</clipPath>
</defs>
</svg>
